# xmcd CD database file
# Generated: Sun Nov 3 11:46:28 2002 by KSCD
# 
# Track frame offsets:
#       150
#       19325
#       37877
#       53602
#       74702
#       93495
#       112540
#       130995
#       150342
#       168102
#       186000
#       201417
#
# Disc length: 2833 seconds
#
# Revision: 2
# Processed by: cddbd v1.4PL0 Copyright (c) Steve Scherf et al.
# Submitted via: Kscd 1.3.3
#
DISCID=950b0f0c
DTITLE=Bart Herman - De slag van mijn hart
DYEAR=1900
DGENRE=
TTITLE0=Ga je met me mee
TTITLE1=Lara
TTITLE2=Gedicht in de nacht
TTITLE3=Zes uur 's ochtends
TTITLE4=De slag van mijn hart
TTITLE5=Zoals jij
TTITLE6=Als je morgen weggaat
TTITLE7=Ik wil jou niet kwijt
TTITLE8=Ik loop alleen
TTITLE9=Ik ken niet eens jouw naam
TTITLE10=De vogels op haar balkon
TTITLE11=Vertrouwelijk
EXTD=
EXTT0=
EXTT1=
EXTT2=
EXTT3=
EXTT4=
EXTT5=
EXTT6=
EXTT7=
EXTT8=
EXTT9=
EXTT10=
EXTT11=
PLAYORDER=
